<?xml version='1.0' encoding='utf-8'?>
<svg xmlns:xlink="http://www.w3.org/1999/xlink" xmlns="http://www.w3.org/2000/svg" enable-background="new 0 0 53 17.5" version="1.1" viewBox="0 0 53 17.5"> <symbol id="g" viewBox="-23.5 -7.45 23.65 14.85"> <g clip-rule="evenodd" fill-rule="evenodd"> <path d="m-20.35 2.4c0.4 0.133 0.883 0.3 1.45 0.5 2 0.7 3.617 1.25 4.85 1.65 1.267 0.467 2.083 0.75 2.45 0.85 2.667 0.867 5.267 1.45 7.8 1.75 0.367 0.067 0.75 0.117 1.15 0.15 0.967 0.067 1.9 0.1 2.8 0.1v-0.55c-0.367 0.033-0.733 0.033-1.1 0h-0.8c-1.633-0.1-3.717-0.45-6.25-1.05-3.033-0.667-6.917-1.9-11.65-3.7-0.367-0.133-0.717-0.233-1.05-0.3v0.05c0 0.1-0.117 0.117-0.35 0.05-0.3-0.1-0.483-0.183-0.55-0.25-0.2-0.033-0.383-0.05-0.55-0.05h-0.45v0.4h0.15c0.433 0 1.133 0.133 2.1 0.4zm-0.2-1.05c-0.067-0.033-0.117-0.067-0.15-0.1-0.8-0.233-1.35-0.383-1.65-0.45-0.1-0.033-0.167-0.05-0.2-0.05h-0.05v0.55c0.233-0.1 0.55-0.183 0.95-0.25 0.4 0.1 0.767 0.2 1.1 0.3zm0.85 0.25c0.367 0.1 0.7 0.2 1 0.3 0-0.033 0.017-0.05 0.05-0.05-0.333-0.1-0.633-0.2-0.9-0.3-0.067 0.033-0.117 0.05-0.15 0.05z" fill="#595959"/> <path d="m0.15 4.65v-0.55c-0.1 0.033-0.217 0.05-0.35 0.05-1.033 0.067-2.066 0.1-3.1 0.1-2.1 0-4.534-0.2-7.3-0.6-1.733-0.267-2.983-0.517-3.75-0.75-0.066 0-0.133-0.017-0.2-0.05h-0.05c-0.467-0.1-0.95-0.2-1.45-0.3-0.1-0.033-0.217-0.066-0.35-0.1-0.033 0.033-0.083 0.05-0.15 0.05-0.3 0.033-0.7-0.017-1.2-0.15-0.633-0.2-0.95-0.35-0.95-0.45-0.3-0.1-0.633-0.2-1-0.3-0.1 0.033-0.25 0.017-0.45-0.05-0.167-0.066-0.3-0.133-0.4-0.2-0.333-0.1-0.7-0.2-1.1-0.3-0.4 0.067-0.717 0.15-0.95 0.25v0.3h0.45c0.167 0 0.35 0.017 0.55 0.05-0.066-0.033-0.083-0.066-0.05-0.1 0.066-0.1 0.25-0.117 0.55-0.05 0.167 0.1 0.3 0.2 0.4 0.3 0.333 0.067 0.684 0.167 1.05 0.3 4.733 1.8 8.617 3.033 11.65 3.7 2.533 0.6 4.617 0.95 6.25 1.05h0.8c0.367 0.033 0.733 0.033 1.1 0v-0.35c-0.1 0.033-0.217 0.033-0.35 0-0.433 0-0.867-0.017-1.3-0.05-1.067-0.1-2.05-0.217-2.95-0.35-0.067 0.1-0.217 0.133-0.45 0.1-0.467-0.1-0.8-0.2-1-0.3-1.133-0.2-2.017-0.417-2.65-0.65-0.233-0.033-0.467-0.083-0.7-0.15-1.1-0.333-1.567-0.567-1.4-0.7 0.467-0.133 0.75-0.25 0.85-0.35 0.133-0.1 0.383-0.083 0.75 0.05 0.2 0.033 0.617 0.2 1.25 0.5 0.133 0.033 0.283 0.066 0.45 0.1 0.2 0 0.417 0.033 0.65 0.1-0.066-0.033-0.117-0.066-0.15-0.1-0.066-0.2 0.2-0.25 0.8-0.15 1.033 0.233 1.8 0.35 2.3 0.35 0.633 0.033 1.167 0 1.6-0.1 0.533-0.133 1.05-0.217 1.55-0.25h0.4c0.167 0.033 0.283 0.067 0.35 0.1zm-15.65-1.3c-0.133 0.033-0.383 0-0.75-0.1-0.833-0.333-1.067-0.5-0.7-0.5 0.4-0.033 0.817 0.05 1.25 0.25 0.3 0.2 0.367 0.317 0.2 0.35zm3.45 0.7c-0.133-0.033-0.25-0.066-0.35-0.1-0.633-0.2-0.717-0.317-0.25-0.35 0.433-0.067 0.933 0.017 1.5 0.25 0.433 0.267 0.45 0.383 0.05 0.35-0.133 0-0.267-0.017-0.4-0.05 0.3 0.133 0.467 0.25 0.5 0.35 0 0.133-0.133 0.183-0.4 0.15-0.9-0.1-1.367-0.283-1.4-0.55 0.1 0.033 0.2 0.017 0.3-0.05 0.1-0.033 0.25-0.033 0.45 0zm-2.3-0.15c-0.1 0.033-0.267 0-0.5-0.1-0.6-0.2-0.8-0.316-0.6-0.35 0.133-0.1 0.367-0.1 0.7 0 0.033 0 0.067-0.017 0.1-0.05 0.267-0.133 0.583-0.1 0.95 0.1 0.3 0.1 0.35 0.217 0.15 0.35-0.2 0.167-0.4 0.217-0.6 0.15-0.1-0.033-0.167-0.067-0.2-0.1zm8.2 1.1c0.1 0.067 0.217 0.133 0.35 0.2 0.4 0.167 0.867 0.216 1.4 0.15-0.067 0-0.117-0.017-0.15-0.05-0.067-0.033-0.45-0.1-1.15-0.2-0.167-0.033-0.317-0.067-0.45-0.1z" fill="#969696"/> <path d="m-4.45 6.1c-0.533-0.067-1.017-0.133-1.45-0.2 0.2 0.1 0.533 0.2 1 0.3 0.233 0.033 0.383 0 0.45-0.1zm4.6-1.45c-0.067-0.033-0.183-0.067-0.35-0.1h-0.4c-0.5 0.033-1.017 0.117-1.55 0.25-0.434 0.1-0.967 0.133-1.6 0.1-0.5 0-1.267-0.117-2.3-0.35-0.6-0.1-0.867-0.05-0.8 0.15 0.033 0.033 0.083 0.066 0.15 0.1 0.1 0.1 0.283 0.167 0.55 0.2 0.133 0.033 0.283 0.067 0.45 0.1 0.7 0.1 1.083 0.167 1.15 0.2 0.033 0.034 0.083 0.05 0.15 0.05h0.2c0.5-0.067 1.067-0.1 1.7-0.1 0.4 0.067 0.917 0 1.55-0.2 0.233-0.1 0.483-0.15 0.75-0.15h0.35v-0.25zm-20.85-2.85c-0.1-0.1-0.233-0.2-0.4-0.3-0.3-0.067-0.483-0.05-0.55 0.05-0.033 0.034-0.017 0.067 0.05 0.1 0.067 0.067 0.25 0.15 0.55 0.25 0.233 0.067 0.35 0.05 0.35-0.05v-0.05zm5.2 1.55c0.167-0.033 0.1-0.15-0.2-0.35-0.433-0.2-0.85-0.283-1.25-0.25-0.367 0-0.133 0.167 0.7 0.5 0.367 0.1 0.617 0.133 0.75 0.1zm1.15 0.55c0.033 0.033 0.1 0.067 0.2 0.1 0.2 0.067 0.4 0.017 0.6-0.15 0.2-0.133 0.15-0.25-0.15-0.35-0.367-0.2-0.683-0.233-0.95-0.1-0.033 0.033-0.067 0.05-0.1 0.05 0.033 0.033 0.067 0.05 0.1 0.05 0.333 0.067 0.45 0.167 0.35 0.3 0 0.067-0.017 0.1-0.05 0.1zm2.3 0.15c0.066 0 0.183 0.017 0.35 0.05 0.067 0.033 0.133 0.05 0.2 0.05 0.133 0.033 0.267 0.05 0.4 0.05 0.4 0.033 0.383-0.083-0.05-0.35-0.567-0.233-1.067-0.317-1.5-0.25-0.467 0.033-0.383 0.15 0.25 0.35 0.1 0.033 0.217 0.067 0.35 0.1zm3.5 1.2c-0.067-0.033-0.117-0.05-0.15-0.05-0.966-0.367-1.2-0.65-0.7-0.85 0.1-0.067 0.25-0.067 0.45 0 0.333 0.1 0.717 0.183 1.15 0.25-0.633-0.3-1.05-0.467-1.25-0.5-0.367-0.133-0.617-0.15-0.75-0.05-0.1 0.1-0.383 0.217-0.85 0.35-0.167 0.133 0.3 0.367 1.4 0.7 0.233 0.067 0.467 0.117 0.7 0.15z" fill="#737373"/> <linearGradient id="u" x1="-11.493" x2="-10.496" y1="-7.4199" y2="7.7303" gradientUnits="userSpaceOnUse"> <stop stop-color="#CF8D8D" offset="0"/> <stop stop-color="#CA9E9E" offset=".1765"/> <stop stop-color="#C4B0B0" offset=".4314"/> <stop stop-color="#C0BBBB" offset=".702"/> <stop stop-color="#BFBFBF" offset="1"/> </linearGradient> <path d="m0.15-0.05c-0.233-0.1-0.3-0.25-0.2-0.45 0.033-0.067 0.1-0.133 0.2-0.2v-0.65c-0.167-0.066-0.167-0.183 0-0.35v-3.8c-3-0.067-5.433 0.017-7.3 0.25-2.4 0.3-4.8 0.917-7.2 1.85s-4.066 1.583-5 1.95c-0.9 0.367-1.816 0.6-2.75 0.7-0.167 0.067-0.333 0.1-0.5 0.1h-0.05l0.05 0.4v1h0.05c0.033 0 0.1 0.017 0.2 0.05 0.3 0.067 0.85 0.217 1.65 0.45-0.1-0.067-0.083-0.117 0.05-0.15 0.233-0.1 0.517-0.067 0.85 0.1 0.233 0.133 0.316 0.25 0.25 0.35 0.267 0.1 0.566 0.2 0.9 0.3 0.033-0.067 0.183-0.117 0.45-0.15 0.534-0.067 1.05 0.117 1.55 0.55 0.2 0.1 0.283 0.167 0.25 0.2 0.133 0.033 0.25 0.066 0.35 0.1 0.5 0.1 0.983 0.2 1.45 0.3-0.1-0.033-0.2-0.067-0.3-0.1-0.333-0.067-0.25-0.133 0.25-0.2 0.5-0.033 1.033-0.017 1.6 0.05l1.6 0.2c0.6 0.1 1.083 0.1 1.45 0s0.833-0.1 1.4 0c0.667 0.067 1.217 0.133 1.65 0.2 0.5 0.067 0.817 0.1 0.95 0.1 0.2-0.133 0.467-0.25 0.8-0.35 0.4-0.133 0.833-0.133 1.3 0 0.7 0.233 1.15 0.35 1.35 0.35 0.333-0.033 0.7-0.1 1.1-0.2 0.5-0.2 0.9-0.316 1.2-0.35 0.1-0.033 0.217-0.05 0.35-0.05h0.05v-0.75c-0.067 0.133-0.167 0.183-0.3 0.15h-0.05c-0.566-0.033-0.75-0.167-0.55-0.4 0.167-0.133 0.35-0.2 0.55-0.2h0.2s0.117 0.017 0.15 0.05v-0.1h-0.15s-0.133-0.017-0.2-0.05c-0.433-0.067-0.617-0.184-0.55-0.35 0-0.033 0.017-0.067 0.05-0.1v-0.05c0.1-0.1 0.267-0.15 0.5-0.15 0.067 0 0.133 0.017 0.2 0.05h0.15v-0.65zm-18.05-3.15h0.05l-0.9 0.4c-0.1 0.033-0.2 0.083-0.3 0.15 0.5-0.2 1.05-0.434 1.65-0.7 3.2-1.367 5.733-2.316 7.6-2.85 2.3-0.7 5.117-1.066 8.45-1.1 0.5 0 1-0.017 1.5-0.05v-0.1h-1.4c-1.967 0.033-3.75 0.167-5.35 0.4-0.533 0.1-1.05 0.2-1.55 0.3-0.233 0.067-0.45 0.117-0.65 0.15-0.3 0.1-0.6 0.2-0.9 0.3-0.2 0.066-0.4 0.117-0.6 0.15-1.8 0.566-4.133 1.467-7 2.7-0.2 0.1-0.4 0.183-0.6 0.25zm2.15 4.65c0.1-0.133 0.283-0.15 0.55-0.05 0.233 0.067 0.284 0.167 0.15 0.3-0.133 0.066-0.284 0.083-0.45 0.05-0.3-0.1-0.383-0.2-0.25-0.3zm-1.35-0.2c-0.367-0.033-0.467-0.117-0.3-0.25 0.1-0.133 0.283-0.167 0.55-0.1s0.333 0.15 0.2 0.25c-0.1 0.067-0.25 0.1-0.45 0.1zm-1.1-0.5c-0.1 0.133-0.3 0.15-0.6 0.05-0.567-0.2-0.717-0.316-0.45-0.35 0.2-0.067 0.483-0.067 0.85 0 0.267 0.033 0.333 0.133 0.2 0.3zm3.75 1c0.067-0.1 0.233-0.117 0.5-0.05 0.267 0.066 0.333 0.15 0.2 0.25-0.1 0.066-0.25 0.1-0.45 0.1-0.233-0.067-0.317-0.167-0.25-0.3zm1.35 0.15c-0.233-0.066-0.267-0.167-0.1-0.3 0.133-0.1 0.3-0.133 0.5-0.1s0.25 0.117 0.15 0.25c-0.133 0.133-0.317 0.183-0.55 0.15zm2.55-0.1c-0.633-0.167-0.817-0.3-0.55-0.4 0.233-0.1 0.583-0.1 1.05 0 0.367 0.1 0.417 0.217 0.15 0.35-0.233 0.1-0.45 0.117-0.65 0.05zm-0.1-0.75c-0.567-0.1-0.7-0.25-0.4-0.45 0.333-0.233 0.683-0.283 1.05-0.15 0.367 0.066 0.467 0.216 0.3 0.45-0.2 0.167-0.517 0.217-0.95 0.15zm-1.3 0.25c-0.066 0.133-0.2 0.167-0.4 0.1-0.4-0.1-0.517-0.2-0.35-0.3s0.367-0.133 0.6-0.1c0.2 0.067 0.25 0.167 0.15 0.3zm-2.25 0.05c-0.433-0.167-0.533-0.283-0.3-0.35 0.2-0.067 0.433-0.05 0.7 0.05 0.233 0.1 0.283 0.2 0.15 0.3-0.1 0.1-0.283 0.1-0.55 0zm-0.4-0.9c0.333 0.1 0.417 0.2 0.25 0.3-0.2 0.1-0.433 0.133-0.7 0.1-0.333-0.033-0.417-0.15-0.25-0.35 0.133-0.1 0.367-0.117 0.7-0.05zm8.1 1.05c-0.6-0.167-0.75-0.35-0.45-0.55 0.333-0.2 0.65-0.267 0.95-0.2 0.2 0.067 0.233 0.233 0.1 0.5-0.167 0.233-0.367 0.317-0.6 0.25zm-0.95 1.05c0.1-0.1 0.284-0.133 0.55-0.1 0.267 0.033 0.333 0.1 0.2 0.2-0.066 0.1-0.216 0.133-0.45 0.1-0.267-0.033-0.367-0.1-0.3-0.2zm2.05-0.4c-0.233 0.1-0.533 0.117-0.9 0.05-0.633-0.067-0.767-0.2-0.4-0.4 0.4-0.2 0.767-0.216 1.1-0.05 0.333 0.167 0.4 0.3 0.2 0.4zm-2.9-0.95c0.3 0.067 0.417 0.2 0.35 0.4-0.067 0.233-0.217 0.35-0.45 0.35-0.6-0.067-0.817-0.217-0.65-0.45 0.167-0.267 0.417-0.367 0.75-0.3zm4.55 0.7c0.233-0.167 0.45-0.217 0.65-0.15s0.25 0.183 0.15 0.35-0.216 0.233-0.35 0.2c-0.5-0.1-0.65-0.233-0.45-0.4zm-0.25-1.1c0.367 0.167 0.4 0.317 0.1 0.45-0.3 0.1-0.667 0.15-1.1 0.15-0.233 0-0.217-0.15 0.05-0.45 0.267-0.233 0.583-0.283 0.95-0.15zm2.8-0.35c-0.233 0.1-0.467 0.05-0.7-0.15-0.167-0.2-0.217-0.35-0.15-0.45 0.066-0.1 0.267-0.15 0.6-0.15 0.3 0 0.583 0.083 0.85 0.25 0.333 0.167 0.133 0.333-0.6 0.5zm-0.75 0.95c0.133-0.2 0.383-0.267 0.75-0.2 0.367 0.033 0.483 0.15 0.35 0.35-0.167 0.1-0.45 0.167-0.85 0.2-0.3 0.033-0.383-0.083-0.25-0.35zm-7.45-2.1c0.2 0.067 0.217 0.184 0.05 0.35-0.2 0.133-0.4 0.167-0.6 0.1-0.433-0.067-0.5-0.167-0.2-0.3 0.3-0.2 0.55-0.25 0.75-0.15zm1.55 0.7c-0.767-0.067-0.9-0.2-0.4-0.4 0.467-0.2 0.867-0.2 1.2 0 0.533 0.367 0.267 0.5-0.8 0.4zm1.4-1.35c0.233 0.033 0.284 0.133 0.15 0.3-0.167 0.1-0.367 0.15-0.6 0.15-0.367 0.033-0.434-0.067-0.2-0.3 0.2-0.2 0.417-0.25 0.65-0.15zm0.25 1.15c0.067-0.167 0.217-0.216 0.45-0.15 0.233 0.067 0.317 0.167 0.25 0.3-0.1 0.133-0.267 0.183-0.5 0.15-0.267-0.033-0.333-0.133-0.2-0.3zm1.65-0.85c0.233 0.133 0.25 0.267 0.05 0.4-0.233 0.2-0.483 0.25-0.75 0.15-0.533-0.167-0.617-0.333-0.25-0.5 0.333-0.1 0.65-0.117 0.95-0.05zm1.1-0.8c0.267-0.167 0.55-0.233 0.85-0.2 0.233 0.033 0.267 0.167 0.1 0.4-0.167 0.2-0.367 0.267-0.6 0.2-0.467-0.1-0.583-0.233-0.35-0.4zm0.3 1.45c0.267 0.167 0.267 0.3 0 0.4-0.2 0.067-0.367 0.083-0.5 0.05-0.467-0.033-0.583-0.15-0.35-0.35 0.3-0.2 0.583-0.233 0.85-0.1zm3-0.55c0.033 0.067 0.017 0.117-0.05 0.15-0.033 0.066-0.083 0.117-0.15 0.15-0.1 0.066-0.233 0.083-0.4 0.05-0.167 0-0.3-0.083-0.4-0.25-0.133-0.133-0.133-0.25 0-0.35 0.133-0.133 0.333-0.167 0.6-0.1 0.167 0.033 0.283 0.1 0.35 0.2 0.033 0.033 0.05 0.083 0.05 0.15zm-13 0.9c-0.467 0.033-0.633-0.067-0.5-0.3 0.1-0.167 0.333-0.25 0.7-0.25 0.267 0 0.35 0.083 0.25 0.25-0.1 0.2-0.25 0.3-0.45 0.3zm1.2-0.3c0.3 0.067 0.383 0.184 0.25 0.35-0.233 0.167-0.45 0.233-0.65 0.2-0.333-0.034-0.45-0.167-0.35-0.4 0.133-0.167 0.383-0.217 0.75-0.15z" fill="url(#u)"/> <path d="m0.1 2.5c-0.1 0.033-0.2 0.05-0.3 0.05h-0.05c-0.3 0.034-0.7 0.15-1.2 0.35-0.4 0.1-0.767 0.167-1.1 0.2-0.2 0-0.65-0.117-1.35-0.35-0.467-0.133-0.9-0.133-1.3 0-0.333 0.1-0.6 0.217-0.8 0.35-0.133 0-0.45-0.033-0.95-0.1-0.433-0.067-0.983-0.133-1.65-0.2-0.566-0.1-1.033-0.1-1.4 0s-0.85 0.1-1.45 0l-1.6-0.2c-0.567-0.067-1.1-0.083-1.6-0.05-0.5 0.067-0.583 0.133-0.25 0.2 0.1 0.033 0.2 0.067 0.3 0.1h0.05c0.066 0.033 0.133 0.05 0.2 0.05 0.767 0.233 2.017 0.483 3.75 0.75 2.767 0.4 5.2 0.6 7.3 0.6 1.033 0 2.066-0.033 3.1-0.1 0.133 0 0.25-0.017 0.35-0.05v-1.6h-0.05zm0.05-1.25v-0.65h-0.15c-0.067-0.033-0.133-0.05-0.2-0.05-0.233 0-0.4 0.05-0.5 0.15v0.05c-0.033 0.033-0.05 0.067-0.05 0.1-0.067 0.167 0.117 0.283 0.55 0.35 0.067 0.033 0.133 0.05 0.2 0.05s0.117 0 0.15 0zm0 0.1c-0.033-0.033-0.083-0.05-0.15-0.05s-0.133 0-0.2 0c-0.2 0-0.383 0.067-0.55 0.2-0.2 0.233-0.017 0.367 0.55 0.4h0.05c0.133 0.033 0.233-0.017 0.3-0.15v-0.4zm0-2.05c-0.1 0.067-0.167 0.133-0.2 0.2-0.1 0.2-0.034 0.35 0.2 0.45v-0.65zm-18.8 2.55c-0.033 0-0.05 0.017-0.05 0.05 0 0.1 0.317 0.25 0.95 0.45 0.5 0.133 0.9 0.183 1.2 0.15 0.066 0 0.117-0.017 0.15-0.05 0.033-0.034-0.05-0.1-0.25-0.2-0.5-0.433-1.017-0.617-1.55-0.55-0.267 0.033-0.417 0.083-0.45 0.15zm-1.9-0.5c0.1 0.066 0.233 0.133 0.4 0.2 0.2 0.067 0.35 0.083 0.45 0.05 0.034 0 0.083-0.017 0.15-0.05 0.066-0.1-0.017-0.216-0.25-0.35-0.333-0.167-0.617-0.2-0.85-0.1-0.133 0.033-0.15 0.083-0.05 0.15 0.033 0.033 0.083 0.067 0.15 0.1zm2.35-0.6c0.133-0.167 0.067-0.267-0.2-0.3-0.367-0.067-0.65-0.067-0.85 0-0.267 0.033-0.117 0.15 0.45 0.35 0.3 0.1 0.5 0.083 0.6-0.05zm1.1 0.5c0.2 0 0.35-0.033 0.45-0.1 0.133-0.1 0.066-0.183-0.2-0.25-0.267-0.067-0.45-0.033-0.55 0.1-0.167 0.133-0.067 0.217 0.3 0.25zm1.35 0.2c-0.133 0.1-0.05 0.2 0.25 0.3 0.167 0.033 0.317 0.017 0.45-0.05 0.133-0.133 0.083-0.233-0.15-0.3-0.267-0.1-0.45-0.083-0.55 0.05zm2.65 0.45c0.233 0.033 0.417-0.017 0.55-0.15 0.1-0.133 0.05-0.217-0.15-0.25s-0.367 0-0.5 0.1c-0.167 0.133-0.133 0.233 0.1 0.3zm-1.35-0.15c-0.066 0.133 0.017 0.233 0.25 0.3 0.2 0 0.35-0.033 0.45-0.1 0.133-0.1 0.067-0.184-0.2-0.25-0.267-0.067-0.433-0.05-0.5 0.05zm-0.15-1.3c-0.333-0.067-0.566-0.05-0.7 0.05-0.167 0.2-0.083 0.317 0.25 0.35 0.267 0.033 0.5 0 0.7-0.1 0.167-0.1 0.083-0.2-0.25-0.3zm0.4 0.9c0.267 0.1 0.45 0.1 0.55 0 0.133-0.1 0.083-0.2-0.15-0.3-0.267-0.1-0.5-0.117-0.7-0.05-0.233 0.067-0.133 0.183 0.3 0.35zm2.25-0.05c0.1-0.133 0.05-0.233-0.15-0.3-0.233-0.033-0.433 0-0.6 0.1s-0.05 0.2 0.35 0.3c0.2 0.067 0.333 0.033 0.4-0.1zm1.3-0.25c0.433 0.067 0.75 0.017 0.95-0.15 0.167-0.233 0.067-0.383-0.3-0.45-0.367-0.133-0.717-0.083-1.05 0.15-0.3 0.2-0.167 0.35 0.4 0.45zm0.1 0.75c0.2 0.067 0.417 0.05 0.65-0.05 0.267-0.133 0.217-0.25-0.15-0.35-0.467-0.1-0.817-0.1-1.05 0-0.267 0.1-0.083 0.233 0.55 0.4zm2.25-0.6c-0.333-0.067-0.583 0.033-0.75 0.3-0.167 0.233 0.05 0.383 0.65 0.45 0.233 0 0.383-0.117 0.45-0.35 0.067-0.2-0.05-0.333-0.35-0.4zm2.9 0.95c0.2-0.1 0.133-0.233-0.2-0.4s-0.7-0.15-1.1 0.05c-0.367 0.2-0.233 0.333 0.4 0.4 0.367 0.067 0.667 0.05 0.9-0.05zm-2.05 0.4c-0.066 0.1 0.034 0.167 0.3 0.2 0.233 0.033 0.383 0 0.45-0.1 0.133-0.1 0.067-0.167-0.2-0.2s-0.45 0-0.55 0.1zm0.95-1.05c0.233 0.067 0.433-0.017 0.6-0.25 0.133-0.267 0.1-0.433-0.1-0.5-0.3-0.067-0.617 0-0.95 0.2-0.3 0.2-0.15 0.383 0.45 0.55zm2.5-0.7c-0.367-0.133-0.683-0.083-0.95 0.15-0.267 0.3-0.283 0.45-0.05 0.45 0.433 0 0.8-0.05 1.1-0.15 0.3-0.133 0.267-0.283-0.1-0.45zm0.25 1.1c-0.2 0.167-0.05 0.3 0.45 0.4 0.133 0.034 0.25-0.033 0.35-0.2s0.05-0.283-0.15-0.35-0.417-0.017-0.65 0.15zm1.8-0.5c-0.133 0.267-0.05 0.383 0.25 0.35 0.4-0.033 0.684-0.1 0.85-0.2 0.133-0.2 0.017-0.316-0.35-0.35-0.367-0.067-0.617 0-0.75 0.2zm0.75-0.95c0.733-0.167 0.934-0.333 0.6-0.5-0.267-0.167-0.55-0.25-0.85-0.25-0.333 0-0.533 0.05-0.6 0.15s-0.017 0.25 0.15 0.45c0.233 0.2 0.467 0.25 0.7 0.15zm1.05-1.4c0-0.066-0.017-0.117-0.05-0.15-0.066-0.1-0.183-0.167-0.35-0.2-0.267-0.067-0.467-0.034-0.6 0.1-0.133 0.1-0.133 0.217 0 0.35 0.1 0.167 0.233 0.25 0.4 0.25 0.167 0.033 0.3 0.017 0.4-0.05 0.067-0.033 0.117-0.083 0.15-0.15 0.067-0.033 0.083-0.083 0.05-0.15zm-3 0.55c-0.267-0.133-0.55-0.1-0.85 0.1-0.233 0.2-0.117 0.316 0.35 0.35 0.133 0.034 0.3 0.017 0.5-0.05 0.267-0.1 0.267-0.233 0-0.4zm-0.3-1.45c-0.233 0.167-0.117 0.3 0.35 0.4 0.233 0.067 0.434 0 0.6-0.2 0.167-0.233 0.133-0.367-0.1-0.4-0.3-0.033-0.583 0.033-0.85 0.2zm-1.1 0.8c-0.3-0.067-0.617-0.05-0.95 0.05-0.367 0.167-0.283 0.333 0.25 0.5 0.267 0.1 0.517 0.05 0.75-0.15 0.2-0.133 0.183-0.267-0.05-0.4zm-1.65 0.85c-0.133 0.167-0.067 0.267 0.2 0.3 0.233 0.033 0.4-0.017 0.5-0.15 0.067-0.133-0.017-0.233-0.25-0.3s-0.383-0.017-0.45 0.15zm-0.25-1.15c-0.233-0.1-0.45-0.05-0.65 0.15-0.233 0.233-0.167 0.333 0.2 0.3 0.233 0 0.433-0.05 0.6-0.15 0.133-0.167 0.083-0.267-0.15-0.3zm-1.4 1.35c1.067 0.1 1.333-0.033 0.8-0.4-0.333-0.2-0.733-0.2-1.2 0-0.5 0.2-0.367 0.333 0.4 0.4zm-1.55-0.7c-0.2-0.1-0.45-0.05-0.75 0.15-0.3 0.133-0.233 0.233 0.2 0.3 0.2 0.067 0.4 0.033 0.6-0.1 0.167-0.167 0.15-0.283-0.05-0.35zm-2.55 0.35c-0.367-0.066-0.617-0.017-0.75 0.15-0.1 0.233 0.017 0.367 0.35 0.4 0.2 0.033 0.417-0.034 0.65-0.2 0.133-0.167 0.05-0.283-0.25-0.35zm-1.2 0.3c0.2 0 0.35-0.1 0.45-0.3 0.1-0.167 0.017-0.25-0.25-0.25-0.367 0-0.6 0.083-0.7 0.25-0.133 0.233 0.033 0.333 0.5 0.3z" fill="#F1FCED"/> <path d="m0.15 6.5v-1.6h-0.35c-0.267 0-0.517 0.05-0.75 0.15-0.633 0.2-1.15 0.267-1.55 0.2-0.633 0-1.2 0.033-1.7 0.1h-0.2c-0.533 0.066-1 0.017-1.4-0.15-0.133-0.067-0.25-0.133-0.35-0.2-0.267-0.033-0.45-0.1-0.55-0.2-0.233-0.066-0.45-0.1-0.65-0.1-0.167-0.033-0.317-0.067-0.45-0.1-0.434-0.067-0.817-0.15-1.15-0.25-0.2-0.067-0.35-0.067-0.45 0-0.5 0.2-0.267 0.483 0.7 0.85 0.034 0 0.083 0.017 0.15 0.05 0.633 0.233 1.517 0.45 2.65 0.65 0.433 0.067 0.917 0.133 1.45 0.2 0.9 0.133 1.883 0.25 2.95 0.35 0.433 0.033 0.867 0.05 1.3 0.05 0.133 0.033 0.25 0.033 0.35 0zm-12.2-2.45c-0.2-0.033-0.35-0.033-0.45 0-0.1 0.067-0.2 0.083-0.3 0.05 0.033 0.267 0.5 0.45 1.4 0.55 0.267 0.033 0.4-0.017 0.4-0.15-0.033-0.1-0.2-0.217-0.5-0.35-0.067 0-0.133-0.017-0.2-0.05-0.167-0.033-0.283-0.05-0.35-0.05zm-2.3-0.15c0.033 0 0.05-0.033 0.05-0.1 0.1-0.133-0.017-0.233-0.35-0.3-0.033 0-0.067-0.017-0.1-0.05-0.333-0.1-0.567-0.1-0.7 0-0.2 0.033 0 0.15 0.6 0.35 0.233 0.1 0.4 0.133 0.5 0.1z" fill="#F7F7F7"/> <linearGradient id="v" x1="-17.139" x2="-18.264" y1="3.397" y2="4.822" gradientUnits="userSpaceOnUse"> <stop stop-color="#3B3B3B" offset="0"/> <stop stop-color="#919191" offset="1"/> </linearGradient> <path d="m-14.05 4.55c-1.233-0.4-2.85-0.95-4.85-1.65-0.567-0.2-1.05-0.367-1.45-0.5 0 0.067 0.083 0.15 0.25 0.25-0.267-0.066-0.35-0.033-0.25 0.1 0 0.067 0.184 0.167 0.55 0.3l0.5 0.2c-0.267 0-0.267 0.083 0 0.25 0.167 0.1 0.383 0.15 0.65 0.15h0.15c-0.067 0.1 0.183 0.25 0.75 0.45 0.433 0.2 1.117 0.35 2.05 0.45 0.7 0.067 1.25 0.067 1.65 0z" fill="url(#v)"/> <path d="m-21.65-0.95c0.333-0.133 0.7-0.3 1.1-0.5 0.9-0.466 2.267-1.1 4.1-1.9 1.833-0.767 3.717-1.417 5.65-1.95 1.9-0.533 3.833-0.883 5.8-1.05 1.7-0.133 3.417-0.2 5.15-0.2v-0.8c-0.5 0.033-1 0.05-1.5 0.05-3.333 0.033-6.15 0.4-8.45 1.1-1.867 0.534-4.4 1.483-7.6 2.85-0.6 0.267-1.15 0.5-1.65 0.7h-0.05c-0.5 0.3-1.3 0.833-2.4 1.6-0.067 0.033-0.117 0.067-0.15 0.1z" fill="#C68484"/> <linearGradient id="w" x1="-18.084" x2="-23.309" y1="-1.6211" y2="-2.3227" gradientUnits="userSpaceOnUse"> <stop stop-color="#3B3B3B" offset="0"/> <stop stop-color="#A1A1A1" offset="1"/> </linearGradient> <path d="m-22.65-0.65h0.05c0.167 0 0.333-0.033 0.5-0.1 0.133-0.033 0.283-0.1 0.45-0.2 0.033-0.033 0.083-0.066 0.15-0.1 1.1-0.767 1.9-1.3 2.4-1.6h0.05c0.1-0.067 0.2-0.117 0.3-0.15l0.9-0.4h-0.05l-0.8 0.15c-0.633 0.167-1.15 0.233-1.55 0.2-0.833 0-1.267 0.067-1.3 0.2l-0.15 0.15-0.15-0.05c-0.1 0.033-0.233 0.1-0.4 0.2-0.2 0.167-0.267 0.333-0.2 0.5-0.066-0.033-0.117-0.066-0.15-0.1-0.2-0.133-0.367-0.1-0.5 0.1-0.1 0.2-0.15 0.367-0.15 0.5l0.15 0.15c-0.233-0.066-0.367-0.066-0.4 0v0.05c0 0.033 0.017 0.066 0.05 0.1 0 0.033 0.017 0.066 0.05 0.1 0.233 0.233 0.483 0.333 0.75 0.3z" fill="url(#w)"/> <path d="m0.15-6.55c-1.733 0-3.45 0.066-5.15 0.2-1.967 0.167-3.9 0.517-5.8 1.05-1.934 0.533-3.817 1.183-5.65 1.95-1.833 0.8-3.2 1.434-4.1 1.9-0.4 0.2-0.767 0.367-1.1 0.5-0.167 0.1-0.317 0.167-0.45 0.2 0.934-0.1 1.85-0.333 2.75-0.7 0.934-0.367 2.6-1.017 5-1.95 2.4-0.934 4.8-1.55 7.2-1.85 1.867-0.233 4.3-0.317 7.3-0.25v-1.05z" fill="#CC9191"/> </g> </symbol> <symbol id="f" viewBox="-21.776 -7.45 45.247 16.317"> <use transform="translate(-.0498 6.9502)" x="-3.85" width="7.75" height="1.917" xlink:href="#c"/> <use transform="matrix(.9287 0 0 1 .0498 0)" x="-23.5" y="-7.45" width="23.65" height="14.85" xlink:href="#g"/> <use transform="translate(-.1001)" x="0.025" y="-7.45" width="23.547" height="14.85" xlink:href="#b"/> <use transform="translate(3.7998 -3.2002)" x="-6.2" y="-3.2" width="6.203" height="3.2" xlink:href="#d"/> </symbol> <symbol id="e" viewBox="-24.099 -7.894 52.51 17.508"> <use transform="matrix(.9505 0 0 1.073 6.1001 .1006)" x="-21.776" y="-7.45" width="45.247" height="16.317" xlink:href="#f"/> <use transform="matrix(.9776 0 0 1.29 -13.15 .8506)" x="-11.2" y="-4.778" width="11.2" height="9.578" xlink:href="#a"/> </symbol> <symbol id="d" viewBox="-6.2 -3.2 6.203 3.2"> <g clip-rule="evenodd" fill-rule="evenodd"> <path d="m-0.3-0.3c0.267 0.066 0.35-0.034 0.25-0.3-0.067-0.267-0.233-0.566-0.5-0.9-0.233-0.3-0.717-0.617-1.45-0.95-0.567-0.267-1.05-0.433-1.45-0.5l-1-0.25c0.067 0.133 0.117 0.25 0.15 0.35 0.033 0.233-0.05 0.417-0.25 0.55-0.034 0.033-0.267 0.167-0.7 0.4-0.233 0.1-0.4 0.217-0.5 0.35-0.167 0.267-0.233 0.466-0.2 0.6 1.267-0.233 2.267-0.3 3-0.2 0.767 0.1 1.65 0.383 2.65 0.85z" fill-opacity=".2"/> <linearGradient id="x" x1=".5649" x2="-6.9601" y1="-1.9849" y2="-.6849" gradientUnits="userSpaceOnUse"> <stop stop-color="#3D3D3D" offset="0"/> <stop stop-color="#C7C7C7" offset="1"/> </linearGradient> <path d="m-2.2-0.3c0.7 0.1 1.15 0.183 1.35 0.25 0.434 0.1 0.7 0.033 0.8-0.2 0.1-0.267-0.083-0.6-0.55-1-1-0.9-2.033-1.417-3.1-1.55l-0.9-0.1c0.2 0.033 0.35 0.1 0.45 0.2 0.233 0.233 0.033 0.5-0.6 0.8-0.9 0.467-1.383 0.9-1.45 1.3 0.8-0.167 1.567-0.167 2.3 0 0.367 0.1 0.933 0.2 1.7 0.3z" fill="url(#x)"/> <path d="m-0.45 0c0.2-0.033 0.317-0.05 0.35-0.05 0-0.034 0.033-0.133 0.1-0.3 0.033-0.133-0.233-0.533-0.8-1.2l-0.35-0.35 0.35 0.5-0.7-0.4c-0.367-0.167-0.717-0.217-1.05-0.15 0.3 0.067 0.65 0.167 1.05 0.3 0.3 0.133 0.467 0.3 0.5 0.5l0.1 0.25-0.45-0.2c-0.333-0.133-0.65-0.25-0.95-0.35-0.533-0.1-1.1-0.117-1.7-0.05l0.45 0.05c0.8 0.1 1.433 0.25 1.9 0.45 0.233 0.133 0.4 0.25 0.5 0.35l0.05 0.1-1.55-0.35c-0.433-0.067-1.083-0.083-1.95-0.05 0.6 0.067 1.15 0.15 1.65 0.25 0.934 0.067 1.5 0.167 1.7 0.3 0.333 0.233 0.083 0.217-0.75-0.05-0.2 0-0.5 0.017-0.9 0.05 0.4 0.066 0.833 0.15 1.3 0.25 0.633 0.1 1.017 0.15 1.15 0.15z" fill="#454545"/> </g> </symbol> <symbol id="c" viewBox="-3.85 0 7.75 1.917"> <linearGradient id="y" x1="1.7373" x2="-4.1377" y1="-.2241" y2="1.9009" gradientUnits="userSpaceOnUse"> <stop stop-color="#454545" offset="0"/> <stop stop-color="#BABABA" offset="1"/> </linearGradient> <path d="m0 1.85c0.733-0.133 1.333-0.283 1.8-0.45 0.7-0.3 1.4-0.767 2.1-1.4-1.933 0.4-4.133 0.5-6.6 0.3-0.4-0.033-0.783-0.083-1.15-0.15 0.133 0.067 0.3 0.15 0.5 0.25l0.05 0.15c0.066 0.067 0.233 0.133 0.5 0.2l0.35 0.1 0.05 0.25c0.033 0.167 0.233 0.283 0.6 0.35l-0.1 0.1c-0.233 0.167-0.083 0.283 0.45 0.35 0.333 0.033 0.817 0.017 1.45-0.05z" clip-rule="evenodd" fill="url(#y)" fill-rule="evenodd"/> </symbol> <symbol id="b" viewBox="0.025 -7.45 23.547 14.85"> <g clip-rule="evenodd" fill-rule="evenodd"> <path d="m23.1 0.55c-0.033 0.2-0.1 0.367-0.2 0.5l-0.05 0.1c-0.1 0.1-0.25 0.2-0.45 0.3-1.033 0.566-3.033 1.117-6 1.65-0.933 0.167-1.833 0.25-2.7 0.25-0.6 0.2-1.733 0.6-3.4 1.2-2 0.767-3.9 1.35-5.7 1.75l-4.2 0.55c-0.066 0.033-0.15 0.033-0.25 0v0.55c1.367-0.033 2.633-0.167 3.8-0.4 0.133-0.033 0.283-0.067 0.45-0.1 2.233-0.533 5.25-1.483 9.05-2.85 0.566-0.133 1.3-0.267 2.2-0.4 1.533-0.233 2.633-0.467 3.3-0.7 1.933-0.5 3.083-0.85 3.45-1.05 1.033-0.467 1.383-1.066 1.05-1.8-0.333-0.7-0.85-1.267-1.55-1.7-0.066-0.066-0.133-0.117-0.2-0.15l0.3 0.5 0.15 0.15c0.667 0.567 1 1.1 1 1.6l-0.05 0.05z" fill="#595959"/> <path d="m13.7 3.35c-0.6-0.033-1.167-0.1-1.7-0.2-0.033 0.067-0.083 0.15-0.15 0.25-0.167 0.333-0.5 0.483-1 0.45-0.8 0-1-0.15-0.6-0.45 0.2-0.233 0.45-0.383 0.75-0.45-0.2-0.067-0.383-0.133-0.55-0.2-0.233 0.233-0.483 0.35-0.75 0.35-0.833 0.1-1.05 0-0.65-0.3 0.233-0.133 0.45-0.233 0.65-0.3-0.1-0.033-0.2-0.083-0.3-0.15-0.133 0.033-0.267 0.067-0.4 0.1l-0.95 0.2c-0.3 0.067-0.583 0.133-0.85 0.2s-0.517 0.117-0.75 0.15c-0.8 0.2-1.633 0.4-2.5 0.6-0.167 0.033-0.333 0.05-0.5 0.05-0.1 0.033-0.217 0.067-0.35 0.1-1 0.167-1.983 0.283-2.95 0.35v0.55c0.067 0.067 0.1 0.15 0.1 0.25 0.233 0.067 0.483 0.15 0.75 0.25s0.533 0.183 0.8 0.25c0.034-0.033 0.067-0.05 0.1-0.05 0.3-0.133 0.633-0.217 1-0.25l1.95-0.15c0.333-0.034 0.667-0.034 1 0h0.3c0.567 0 0.767 0.066 0.6 0.2h0.05c0.4 0.1 0.033 0.35-1.1 0.75-0.567 0.133-1.383 0.233-2.45 0.3-1.033 0.233-2.067 0.333-3.1 0.3v0.35c0.1 0.033 0.184 0.033 0.25 0l4.2-0.55c1.8-0.4 3.7-0.983 5.7-1.75 1.667-0.6 2.8-1 3.4-1.2zm-8.75 1.15c-0.6 0.1-0.717-0.017-0.35-0.35 0.3-0.267 0.7-0.333 1.2-0.2 0.5 0.1 0.6 0.2 0.3 0.3-0.133 0.033-0.517 0.117-1.15 0.25zm-4.05-0.05c0.5-0.2 1-0.267 1.5-0.2 0.433 0.1 0.55 0.25 0.35 0.45-0.3 0.167-0.717 0.233-1.25 0.2-0.9-0.1-1.1-0.25-0.6-0.45zm7.65-0.75c0.333-0.133 0.717-0.15 1.15-0.05 0.566 0.133 0.683 0.333 0.35 0.6-0.4 0.267-0.933 0.35-1.6 0.25-0.067-0.033-0.117-0.05-0.15-0.05-0.367 0.1-0.717 0.15-1.05 0.15-0.3 0.033-0.5-0.033-0.6-0.2-0.133-0.133-0.05-0.267 0.25-0.4 0.733-0.233 1.283-0.333 1.65-0.3z" fill="#969696"/> <path d="m0.15 4.9v1.6c1.033 0.033 2.067-0.067 3.1-0.3 0.833-0.133 1.667-0.35 2.5-0.65 0.567-0.167 0.9-0.3 1-0.4 0.167-0.133-0.033-0.2-0.6-0.2h-0.3c-0.233 0.033-0.533 0.1-0.9 0.2-0.533-0.167-1.267-0.083-2.2 0.25-0.267 0.1-0.583 0.1-0.95 0-0.267-0.067-0.533-0.15-0.8-0.25s-0.517-0.183-0.75-0.25h-0.1zm8.15-0.45c0.034 0 0.083 0.017 0.15 0.05 0.667 0.1 1.2 0.017 1.6-0.25 0.333-0.267 0.217-0.467-0.35-0.6-0.433-0.1-0.817-0.083-1.15 0.05-0.133 0.033-0.267 0.1-0.4 0.2-0.333 0.2-0.283 0.383 0.15 0.55z" fill="#F7F7F7"/> <path d="m6.75 5.15c-0.1 0.1-0.433 0.233-1 0.4-0.833 0.3-1.667 0.517-2.5 0.65 1.067-0.067 1.883-0.167 2.45-0.3 1.133-0.4 1.5-0.65 1.1-0.75h-0.05zm-4.95 0.25c0.367 0.1 0.684 0.1 0.95 0 0.933-0.333 1.667-0.417 2.2-0.25 0.367-0.1 0.667-0.167 0.9-0.2-0.333-0.034-0.667-0.034-1 0l-1.95 0.15c-0.367 0.033-0.7 0.117-1 0.25-0.033 0-0.067 0.017-0.1 0.05zm-1.65-0.75v0.25h0.1c0-0.1-0.033-0.183-0.1-0.25zm10.85-1.7c-0.3 0.066-0.55 0.216-0.75 0.45-0.4 0.3-0.2 0.45 0.6 0.45 0.5 0.033 0.833-0.117 1-0.45 0.066-0.1 0.117-0.183 0.15-0.25-0.367-0.033-0.7-0.1-1-0.2zm-0.55-0.2c-0.267-0.067-0.517-0.15-0.75-0.25-0.2 0.067-0.417 0.167-0.65 0.3-0.4 0.3-0.183 0.4 0.65 0.3 0.267 0 0.517-0.117 0.75-0.35zm-5.5 1.75c0.633-0.133 1.017-0.217 1.15-0.25 0.3-0.1 0.2-0.2-0.3-0.3-0.5-0.133-0.9-0.067-1.2 0.2-0.367 0.333-0.25 0.45 0.35 0.35zm-4.05-0.05c-0.5 0.2-0.3 0.35 0.6 0.45 0.533 0.033 0.95-0.033 1.25-0.2 0.2-0.2 0.083-0.35-0.35-0.45-0.5-0.067-1 0-1.5 0.2zm7.65-0.75c-0.367-0.033-0.917 0.067-1.65 0.3-0.3 0.133-0.383 0.267-0.25 0.4 0.1 0.167 0.3 0.233 0.6 0.2 0.333 0 0.683-0.05 1.05-0.15-0.433-0.167-0.483-0.35-0.15-0.55 0.133-0.1 0.267-0.167 0.4-0.2z" fill="#737373"/> <linearGradient id="z" x1="9.9438" x2="10.944" y1="-8.8306" y2="6.3194" gradientUnits="userSpaceOnUse"> <stop stop-color="#CF8D8D" offset="0"/> <stop stop-color="#CA9E9E" offset=".1765"/> <stop stop-color="#C4B0B0" offset=".4314"/> <stop stop-color="#C0BBBB" offset=".702"/> <stop stop-color="#BFBFBF" offset="1"/> </linearGradient> <path d="m3.75 1.3c-0.433-0.1-0.55-0.233-0.35-0.4 0.167-0.167 0.434-0.217 0.8-0.15 0.267 0.067 0.333 0.2 0.2 0.4-0.167 0.167-0.383 0.217-0.65 0.15zm0 0.9c-0.067 0.066-0.2 0.1-0.4 0.1-0.4-0.1-0.5-0.216-0.3-0.35 0.133-0.167 0.333-0.184 0.6-0.05 0.233 0.1 0.267 0.2 0.1 0.3zm-3.6 0.3 1.35 0.15c0.867 0.2 1.683 0.25 2.45 0.15 1-0.1 1.333-0.017 1 0.25-0.3 0.267-0.8 0.467-1.5 0.6 0.167 0 0.333-0.017 0.5-0.05 0.867-0.2 1.7-0.4 2.5-0.6h-0.25c-0.6-0.1-0.683-0.233-0.25-0.4 0.4-0.2 0.783-0.267 1.15-0.2 0.333 0.033 0.383 0.167 0.15 0.4l-0.05 0.05c0.267-0.067 0.55-0.133 0.85-0.2l0.95-0.2c0.133-0.034 0.267-0.067 0.4-0.1-0.233-0.1-0.45-0.2-0.65-0.3-2.133-1.167-3.283-2.567-3.45-4.2-0.1-0.367-0.133-0.733-0.1-1.1s0.117-0.683 0.25-0.95l0.2-0.3 0.1-0.075c0.212-0.204 0.479-0.379 0.8-0.525-0.5-0.033-1.033-0.066-1.6-0.1-1.733-0.133-3.333-0.233-4.8-0.3v3.8c0.3-0.2 0.517-0.216 0.65-0.05 0.3 0.3 0.15 0.45-0.45 0.45-0.067 0-0.133-0.017-0.2-0.05v0.65c0.167-0.066 0.383-0.066 0.65 0 0.434 0.067 0.567 0.217 0.4 0.45-0.133 0.233-0.383 0.333-0.75 0.3-0.133-0.033-0.233-0.066-0.3-0.1v0.65c0.033 0.033 0.067 0.05 0.1 0.05 0.167 0.067 0.217 0.183 0.15 0.35-0.067 0.133-0.15 0.217-0.25 0.25v0.1c0.1 0.066 0.117 0.167 0.05 0.3 0 0.033-0.017 0.067-0.05 0.1v0.75zm5.9-0.6c-0.367-0.067-0.417-0.167-0.15-0.3 0.267-0.2 0.5-0.25 0.7-0.15 0.2 0.033 0.217 0.117 0.05 0.25-0.167 0.167-0.367 0.233-0.6 0.2zm-4.2-0.7c-0.2-0.033-0.183-0.133 0.05-0.3 0.233-0.133 0.45-0.15 0.65-0.05 0.233 0.133 0.25 0.25 0.05 0.35-0.167 0.033-0.417 0.033-0.75 0zm1.05-1.1c-0.1 0.3-0.283 0.433-0.55 0.4-0.467-0.1-0.65-0.283-0.55-0.55 0.1-0.233 0.35-0.333 0.75-0.3 0.367 0.033 0.483 0.183 0.35 0.45zm-2.75-7.45c2.934 0.033 5.817 0.333 8.65 0.9 4.567 0.867 7.983 2 10.25 3.4 0.067 0.033 0.117 0.066 0.15 0.1l0.1 0.05c0.667 0.433 1.217 0.816 1.65 1.15v-0.05c-0.467-0.434-1.067-0.883-1.8-1.35-2.267-1.4-5.683-2.55-10.25-3.45-2.867-0.533-5.783-0.817-8.75-0.85v0.1zm2.35 6.3c-0.433-0.133-0.65-0.267-0.65-0.4 0.033-0.2 0.25-0.267 0.65-0.2 0.367 0.033 0.5 0.15 0.4 0.35s-0.233 0.283-0.4 0.25zm0.45-0.55c-0.2-0.133-0.25-0.233-0.15-0.3 0.267 0 0.567-0.033 0.9-0.1 0.367-0.033 0.566-0.2 0.6-0.5 0.067-0.133 0.083-0.25 0.05-0.35 0.3 0.434 0.333 0.817 0.1 1.15-0.067 0.1-0.283 0.167-0.65 0.2-0.333 0.067-0.617 0.033-0.85-0.1zm1.6 1.55c-0.133 0.033-0.317 0.033-0.55 0-0.4-0.033-0.483-0.15-0.25-0.35 0.233-0.167 0.467-0.184 0.7-0.05 0.233 0.133 0.267 0.267 0.1 0.4z" fill="url(#z)"/> <path d="m0.15 2.5v1.6c0.967-0.067 1.95-0.183 2.95-0.35 0.133-0.033 0.25-0.067 0.35-0.1 0.7-0.133 1.2-0.333 1.5-0.6 0.333-0.267 0-0.35-1-0.25-0.767 0.1-1.583 0.05-2.45-0.15l-1.35-0.15zm3.6-0.3c0.167-0.1 0.133-0.2-0.1-0.3-0.267-0.133-0.467-0.117-0.6 0.05-0.2 0.133-0.1 0.25 0.3 0.35 0.2 0 0.333-0.033 0.4-0.1zm0-0.9c0.267 0.067 0.483 0.017 0.65-0.15 0.133-0.2 0.067-0.333-0.2-0.4-0.367-0.067-0.633-0.017-0.8 0.15-0.2 0.167-0.083 0.3 0.35 0.4zm2.7 1.7c0.233-0.033 0.483-0.083 0.75-0.15l0.05-0.05c0.233-0.233 0.183-0.367-0.15-0.4-0.367-0.066-0.75 0-1.15 0.2-0.433 0.167-0.35 0.3 0.25 0.4h0.25zm-0.4-1.1c0.233 0.033 0.434-0.033 0.6-0.2 0.167-0.133 0.15-0.217-0.05-0.25-0.2-0.1-0.433-0.05-0.7 0.15-0.267 0.133-0.217 0.233 0.15 0.3zm-5.9-0.55v0.4c0.033-0.033 0.05-0.067 0.05-0.1 0.067-0.133 0.05-0.233-0.05-0.3zm0-0.75v0.65c0.1-0.033 0.183-0.117 0.25-0.25 0.067-0.167 0.017-0.283-0.15-0.35-0.033 0-0.067-0.017-0.1-0.05zm0-1.3v0.65c0.067 0.033 0.167 0.066 0.3 0.1 0.367 0.034 0.617-0.066 0.75-0.3 0.167-0.233 0.033-0.383-0.4-0.45-0.267-0.067-0.483-0.067-0.65 0zm0-1c-0.167 0.167-0.167 0.284 0 0.35 0.067 0.033 0.133 0.05 0.2 0.05 0.6 0 0.75-0.15 0.45-0.45-0.133-0.167-0.35-0.15-0.65 0.05zm1.7 2.9c0.333 0.033 0.583 0.033 0.75 0 0.2-0.1 0.183-0.217-0.05-0.35-0.2-0.1-0.417-0.083-0.65 0.05-0.233 0.167-0.25 0.267-0.05 0.3zm1.05-1.1c0.133-0.267 0.017-0.417-0.35-0.45-0.4-0.033-0.65 0.067-0.75 0.3-0.1 0.267 0.083 0.45 0.55 0.55 0.267 0.033 0.45-0.1 0.55-0.4zm1.65-0.15c0.167-0.133 0.133-0.267-0.1-0.4s-0.467-0.117-0.7 0.05c-0.233 0.2-0.15 0.317 0.25 0.35 0.233 0.033 0.417 0.033 0.55 0zm-1.6-1.55c0.233 0.133 0.517 0.167 0.85 0.1 0.367-0.033 0.583-0.1 0.65-0.2 0.233-0.333 0.2-0.716-0.1-1.15 0.033 0.1 0.017 0.217-0.05 0.35-0.033 0.3-0.233 0.467-0.6 0.5-0.333 0.067-0.633 0.1-0.9 0.1-0.1 0.067-0.05 0.167 0.15 0.3zm-0.45 0.55c0.167 0.033 0.3-0.05 0.4-0.25s-0.033-0.317-0.4-0.35c-0.4-0.067-0.617 0-0.65 0.2 0 0.133 0.217 0.267 0.65 0.4z" fill="#F1FCED"/> <linearGradient id="j" x1="19.87" x2="9.7451" y1="-1.8984" y2="-8.9484" gradientUnits="userSpaceOnUse"> <stop stop-color="#878787" offset="0"/> <stop stop-color="#A8A8A8" offset=".1882"/> <stop stop-color="#C2C2C2" offset=".3765"/> <stop stop-color="#D4D4D4" offset=".5725"/> <stop stop-color="#DFDFDF" offset=".7765"/> <stop stop-color="#E3E3E3" offset="1"/> </linearGradient> <path d="m23.1 0.55-0.2 0.45v0.05c0.1-0.133 0.167-0.3 0.2-0.5zm-2.1-2.4c0 0.067 0.067 0.184 0.2 0.35-0.034-0.133-0.083-0.267-0.15-0.4l-0.05-0.05-0.1-0.05c0.033 0.067 0.067 0.117 0.1 0.15z" fill="url(#j)"/> <path d="m22-1.25-0.95-1.5c0 0.3-0.017 0.55-0.05 0.75l1 0.75z" fill="#5C5C5C"/> <path d="m0.15-6.55c0.333 0.033 0.667 0.05 1 0.05 2.067 0.1 3.883 0.25 5.45 0.45 1.566 0.2 3.367 0.566 5.4 1.1 2.033 0.567 3.783 1.284 5.25 2.15 0.4 0.233 0.8 0.45 1.2 0.65 0.033-0.033 0.066-0.05 0.1-0.05 0.2 0.167 0.4 0.317 0.6 0.45s0.4 0.267 0.6 0.4c0.533 0.1 0.883 0.067 1.05-0.1 0.067-0.066 0.117-0.167 0.15-0.3-0.434-0.333-0.983-0.717-1.65-1.15l-0.1-0.05c-0.034-0.033-0.083-0.066-0.15-0.1-2.267-1.4-5.683-2.534-10.25-3.4-2.833-0.566-5.716-0.867-8.65-0.9v0.8z" fill="#C68484"/> <path d="m6.55-5.1h0.1c0.667-0.233 1.567-0.3 2.7-0.2 2.066 0.267 4.15 0.917 6.25 1.95 1.833 1.133 3 1.767 3.5 1.9 0.233 0.067 0.45 0.1 0.65 0.1-0.2-0.133-0.4-0.267-0.6-0.4s-0.4-0.283-0.6-0.45c-0.033 0-0.066 0.017-0.1 0.05-0.4-0.2-0.8-0.417-1.2-0.65-1.467-0.867-3.217-1.583-5.25-2.15-2.033-0.533-3.833-0.9-5.4-1.1s-3.383-0.35-5.45-0.45c-0.333 0-0.667-0.017-1-0.05v1.05c1.467 0.067 3.067 0.167 4.8 0.3 0.567 0.033 1.1 0.067 1.6 0.1z" fill="#CC9191"/> <linearGradient id="i" x1="16.737" x2="6.6123" y1="2.6011" y2="-4.4489" gradientUnits="userSpaceOnUse"> <stop stop-color="#878787" offset="0"/> <stop stop-color="#A8A8A8" offset=".1882"/> <stop stop-color="#C2C2C2" offset=".3765"/> <stop stop-color="#D4D4D4" offset=".5725"/> <stop stop-color="#DFDFDF" offset=".7765"/> <stop stop-color="#E3E3E3" offset="1"/> </linearGradient> <path d="m8.55 0.55c0.333 0.167 0.467 0.284 0.4 0.35-0.067 0.1-0.267 0.117-0.6 0.05-0.467-0.167-0.65-0.317-0.55-0.45 0.133-0.1 0.383-0.083 0.75 0.05zm0.5-4.55-0.7-0.1c-2.167-0.067-3.183 0.567-3.05 1.9v0.05c0.167 1.633 1.317 3.033 3.45 4.2 0.2 0.1 0.417 0.2 0.65 0.3 0.1 0.067 0.2 0.117 0.3 0.15 0.233 0.1 0.483 0.183 0.75 0.25 0.167 0.067 0.35 0.133 0.55 0.2 0.3 0.1 0.633 0.167 1 0.2 0.533 0.1 1.1 0.167 1.7 0.2 0.867 0 1.767-0.083 2.7-0.25 2.967-0.533 4.967-1.083 6-1.65-0.066 0-0.133 0.017-0.2 0.05-0.567 0.1-1.317-0.05-2.25-0.45-0.267-0.1-0.567-0.233-0.9-0.4-1-0.533-2.367-1.35-4.1-2.45-1.567-0.867-3.233-1.55-5-2.05l-1-0.15h0.1zm3.45 5.7c-0.433-0.2-0.683-0.55-0.75-1.05-0.067-0.533 0.067-0.983 0.4-1.35 0.4-0.4 0.983-0.483 1.75-0.25l-1.1 0.7c-0.533 0.367-0.633 1.017-0.3 1.95zm2.2 0.9c-0.633-0.333-1.05-0.6-1.25-0.8-0.034-0.033-0.067-0.083-0.1-0.15-0.367-0.367-0.417-0.816-0.15-1.35 0.167-0.433 0.583-0.7 1.25-0.8 0.733-0.067 1.55 0.167 2.45 0.7 0.667 0.4 1.117 0.767 1.35 1.1 0.3 0.5 0.2 0.95-0.3 1.35-0.233 0.2-0.733 0.283-1.5 0.25-0.7 0-1.283-0.1-1.75-0.3zm-7.55-3.25c0.233 0.1 0.35 0.217 0.35 0.35-0.033 0.133-0.15 0.167-0.35 0.1-0.333-0.1-0.483-0.233-0.45-0.4 0-0.133 0.15-0.15 0.45-0.05zm2.45 0.55c-0.733-0.1-1.067-0.383-1-0.85 0-0.433 0.267-0.566 0.8-0.4 0.434 0.133 0.617 0.383 0.55 0.75 0 0.367-0.117 0.533-0.35 0.5zm-1-2c-0.2 0.3-0.417 0.4-0.65 0.3-0.6-0.167-0.783-0.367-0.55-0.6 0.267-0.233 0.6-0.283 1-0.15 0.3 0.067 0.367 0.217 0.2 0.45zm2.65 0.55c0.2 0.2 0.15 0.3-0.15 0.3-0.367 0-0.617-0.117-0.75-0.35-0.167-0.233-0.1-0.316 0.2-0.25 0.267 0.033 0.5 0.133 0.7 0.3z" fill="url(#i)"/> <path d="m8.55 0.55c-0.367-0.133-0.617-0.15-0.75-0.05-0.1 0.133 0.083 0.283 0.55 0.45 0.333 0.067 0.533 0.05 0.6-0.05 0.067-0.067-0.067-0.183-0.4-0.35zm2.7-2.1c-0.2-0.167-0.433-0.267-0.7-0.3-0.3-0.066-0.367 0.017-0.2 0.25 0.133 0.233 0.383 0.35 0.75 0.35 0.3 0 0.35-0.1 0.15-0.3zm-2.65-0.55c0.167-0.233 0.1-0.383-0.2-0.45-0.4-0.133-0.733-0.083-1 0.15-0.233 0.233-0.05 0.433 0.55 0.6 0.233 0.1 0.45 0 0.65-0.3zm1 2c0.233 0.033 0.35-0.133 0.35-0.5 0.066-0.367-0.117-0.617-0.55-0.75-0.533-0.167-0.8-0.033-0.8 0.4-0.067 0.467 0.267 0.75 1 0.85zm-2.45-0.55c-0.3-0.1-0.45-0.083-0.45 0.05-0.033 0.167 0.117 0.3 0.45 0.4 0.2 0.067 0.317 0.034 0.35-0.1 0-0.133-0.117-0.25-0.35-0.35z" fill="#F1FCED"/> <path d="m12.5 1.7c-0.333-0.934-0.233-1.583 0.3-1.95l1.1-0.7c-0.767-0.233-1.35-0.15-1.75 0.25-0.333 0.367-0.467 0.817-0.4 1.35 0.067 0.5 0.317 0.85 0.75 1.05z" fill="#9E9E9E"/> <linearGradient id="h" x1="17.838" x2="13.563" y1="2.5869" y2=".1119" gradientUnits="userSpaceOnUse"> <stop stop-color="#878787" offset="0"/> <stop stop-color="#A8A8A8" offset=".1882"/> <stop stop-color="#C2C2C2" offset=".3765"/> <stop stop-color="#D4D4D4" offset=".5725"/> <stop stop-color="#DFDFDF" offset=".7765"/> <stop stop-color="#E3E3E3" offset="1"/> </linearGradient> <path d="m14.7 2.6c0.466 0.2 1.05 0.3 1.75 0.3 0.767 0.033 1.267-0.05 1.5-0.25 0.5-0.4 0.6-0.85 0.3-1.35-0.233-0.333-0.683-0.7-1.35-1.1-0.9-0.534-1.717-0.767-2.45-0.7-0.667 0.1-1.083 0.367-1.25 0.8-0.267 0.534-0.217 0.983 0.15 1.35 0.033 0.067 0.066 0.117 0.1 0.15 0.2 0.2 0.617 0.467 1.25 0.8zm-0.7-1.05c-0.267-0.7-0.083-1.133 0.55-1.3 0.534-0.1 0.983-0.133 1.35-0.1 0.467 0.1 0.983 0.367 1.55 0.8 0.133 0.1 0.25 0.2 0.35 0.3 0.267 0.3 0.284 0.583 0.05 0.85-0.3 0.3-0.75 0.467-1.35 0.5-1.3 0-2.117-0.35-2.45-1.05h-0.05z" fill="url(#h)"/> <path d="m14.75 1.85c-0.067-0.133-0.117-0.25-0.15-0.35-0.033-0.167-0.017-0.333 0.05-0.5 0.133-0.233 0.417-0.383 0.85-0.45 0.467-0.066 0.917 0.067 1.35 0.4 0.133 0.1 0.25 0.2 0.35 0.3 0.2 0.233 0.233 0.483 0.1 0.75 0-0.3-0.216-0.483-0.65-0.55-0.5-0.067-0.767 0.066-0.8 0.4-0.033 0.267 0.133 0.45 0.5 0.55h-0.1c-0.7-0.033-1.2-0.217-1.5-0.55zm-0.75-0.3h0.05c0.333 0.7 1.15 1.05 2.45 1.05 0.6-0.033 1.05-0.2 1.35-0.5 0.233-0.267 0.217-0.55-0.05-0.85-0.1-0.1-0.216-0.2-0.35-0.3-0.567-0.434-1.083-0.7-1.55-0.8-0.367-0.033-0.816 0-1.35 0.1-0.633 0.167-0.817 0.6-0.55 1.3zm1.6-0.5c0-0.133-0.1-0.216-0.3-0.25-0.2-0.033-0.3 0.017-0.3 0.15-0.033 0.133 0.05 0.216 0.25 0.25 0.2 0.033 0.317-0.017 0.35-0.15z" fill="#fff"/> <path d="m14.75 1.85c0.3 0.333 0.8 0.517 1.5 0.55h0.1c-0.367-0.1-0.533-0.283-0.5-0.55 0.033-0.333 0.3-0.467 0.8-0.4 0.433 0.067 0.65 0.25 0.65 0.55 0.133-0.267 0.1-0.517-0.1-0.75-0.1-0.1-0.217-0.2-0.35-0.3-0.434-0.333-0.883-0.467-1.35-0.4-0.433 0.067-0.717 0.217-0.85 0.45-0.066 0.167-0.083 0.333-0.05 0.5 0.033 0.1 0.083 0.217 0.15 0.35zm0.85-0.8c-0.033 0.133-0.15 0.184-0.35 0.15s-0.283-0.117-0.25-0.25c0-0.133 0.1-0.184 0.3-0.15 0.2 0.033 0.3 0.117 0.3 0.25z" fill="#454545"/> <path d="m21.2-1.5c0.033 0.233 0.05 0.467 0.05 0.7 0 0.267-0.067 0.466-0.2 0.6-0.167 0.2-0.467 0.267-0.9 0.2-0.133 0-0.283-0.033-0.45-0.1-0.633-0.167-1.4-0.517-2.3-1.05l-0.95-0.5c-0.067-0.033-0.133-0.083-0.2-0.15-1.133-0.633-2-1.034-2.6-1.2-0.933-0.433-1.867-0.683-2.8-0.75-0.667-0.133-1.267-0.217-1.8-0.25h-0.1l1 0.15c1.767 0.5 3.433 1.184 5 2.05 1.733 1.1 3.1 1.917 4.1 2.45 0.333 0.167 0.633 0.3 0.9 0.4 0.933 0.4 1.683 0.55 2.25 0.45 0.066-0.033 0.133-0.05 0.2-0.05 0.2-0.1 0.35-0.2 0.45-0.3l0.05-0.15 0.2-0.45 0.05-0.05c0-0.5-0.333-1.033-1-1.6l-1.15-0.9v0.05l0.05 0.05c0.067 0.133 0.117 0.267 0.15 0.4z" fill="#707070"/> <path d="m5.3-2.15v-0.05c-0.133-1.333 0.883-1.967 3.05-1.9l0.7 0.1c0.534 0.033 1.133 0.117 1.8 0.25 0.933 0.067 1.867 0.317 2.8 0.75 0.6 0.167 1.467 0.567 2.6 1.2 0.067 0.066 0.133 0.117 0.2 0.15l0.95 0.5c0.9 0.533 1.667 0.883 2.3 1.05 0.167 0.067 0.317 0.1 0.45 0.1 0.434 0.067 0.733 0 0.9-0.2 0.133-0.133 0.2-0.333 0.2-0.6 0-0.233-0.017-0.467-0.05-0.7-0.133-0.167-0.2-0.283-0.2-0.35l-0.05 0.05v0.05c-0.034 0.133-0.083 0.233-0.15 0.3-0.167 0.167-0.517 0.2-1.05 0.1-0.2 0-0.417-0.033-0.65-0.1-0.5-0.133-1.667-0.767-3.5-1.9-2.1-1.033-4.184-1.683-6.25-1.95-1.133-0.1-2.033-0.034-2.7 0.2-0.379 0.146-0.68 0.321-0.9 0.525l-0.1 0.075-0.2 0.3c-0.133 0.267-0.217 0.583-0.25 0.95s0 0.733 0.1 1.1z" fill="#5C5C5C"/> </g> </symbol> <symbol id="a" viewBox="-11.2 -4.778 11.2 9.578"> <g clip-rule="evenodd" fill-rule="evenodd"> <path d="m0 0.45c-0.233 0.066-0.35 0.133-0.35 0.2 0 0.033 0.117 0.067 0.35 0.1v-0.3z" fill="#969696"/> <path d="m0 0.75c-0.233-0.033-0.35-0.067-0.35-0.1 0-0.066 0.117-0.133 0.35-0.2v-0.55h-0.05c-0.667 0.167-1.1 0.483-1.3 0.95-0.167 0.433-0.133 0.917 0.1 1.45 0.033 0.1 0.083 0.2 0.15 0.3 0.067-0.233 0.167-0.55 0.3-0.95 0.133-0.3 0.4-0.467 0.8-0.5v-0.4z" fill="#595959"/> <linearGradient id="s" x1="-1.0298" x2="-11.705" y1=".9917" y2="-.4333" gradientUnits="userSpaceOnUse"> <stop stop-color="#424242" offset="0"/> <stop stop-color="#D1D1D1" offset="1"/> </linearGradient> <path d="m-1.3 2.4h-0.6c-0.3 0.567-0.617 0.983-0.95 1.25-0.267 0.2-0.633 0.383-1.1 0.55l-0.95 0.25c0.967-0.3 1.583-0.667 1.85-1.1l0.35-0.7-0.05-0.3c-0.167-0.233-0.4-0.283-0.7-0.15-0.533 0.167-1.15 0.4-1.85 0.7 0.167-0.1 0.333-0.2 0.5-0.3 0.4-0.267 0.6-0.5 0.6-0.7 0.067-0.167 0.15-0.3 0.25-0.4 0.034-0.033-0.117-0.067-0.45-0.1l-0.85-0.15c0.4-0.033 0.7-0.183 0.9-0.45 0.233-0.333 0.3-0.6 0.2-0.8-0.067-0.2-0.283-0.267-0.65-0.2l-1.2 0.05c0.367-0.333 0.733-0.5 1.1-0.5l1.05 0.1 0.25-0.3c0.033-0.267-0.25-0.467-0.85-0.6-0.933-0.2-1.917-0.25-2.95-0.15 0.167-0.1 0.617-0.217 1.35-0.35 0.466-0.1 1.05-0.1 1.75 0l0.95 0.2-0.05-0.2c-0.2-0.133-0.6-0.333-1.2-0.6-0.667-0.267-1.4-0.45-2.2-0.55-0.633-0.033-1.1-0.033-1.4 0h-0.45c0.233-0.267 1-0.333 2.3-0.2 0.867 0.067 1.65 0.217 2.35 0.45l0.8 0.3-0.3-0.35c-0.333-0.267-0.95-0.55-1.85-0.85-1.066-0.3-1.7-0.483-1.9-0.55-0.2-0.034-0.733-0.067-1.6-0.1-0.9-0.1-1.683-0.083-2.35 0.05l0.65 0.1c0.233 0 0.733 0.4 1.5 1.2 0.833 0.966 1.45 1.566 1.85 1.8 0.467 0.333 0.733 0.667 0.8 1 0.066 0.4 0.15 0.767 0.25 1.1 0.2 0.4 0.217 1.183 0.05 2.35-0.066 0.566-0.133 1.083-0.2 1.55 0.466 0.067 1.017 0.067 1.65 0 1.267-0.133 2.267-0.567 3-1.3 0.167-0.167 0.283-0.333 0.35-0.5 0-0.133 0.033-0.3 0.1-0.5l-0.1-0.05z" fill="url(#s)"/> <path d="m-1.9 2.4v-0.05l-0.5-0.05c-1.467-0.966-1.65-2.233-0.55-3.8 0.2-0.333 0.617-0.6 1.25-0.8-0.066-0.034-0.117-0.067-0.15-0.1-1.467-0.933-2.75-1.55-3.85-1.85-1.433-0.433-2.767-0.6-4-0.5-0.667 0.1-1.167 0.233-1.5 0.4 0.667-0.133 1.45-0.15 2.35-0.05 0.867 0.033 1.4 0.066 1.6 0.1 0.2 0.066 0.833 0.25 1.9 0.55 0.9 0.3 1.517 0.583 1.85 0.85l0.3 0.35-0.8-0.3c-0.7-0.233-1.483-0.383-2.35-0.45-1.3-0.133-2.066-0.067-2.3 0.2h0.45c0.3-0.033 0.767-0.033 1.4 0 0.8 0.1 1.533 0.283 2.2 0.55 0.6 0.267 1 0.466 1.2 0.6l0.05 0.2-0.95-0.2c-0.7-0.1-1.284-0.1-1.75 0-0.733 0.133-1.183 0.25-1.35 0.35 1.033-0.1 2.017-0.05 2.95 0.15 0.6 0.133 0.883 0.333 0.85 0.6l-0.25 0.3-1.05-0.1c-0.367 0-0.733 0.167-1.1 0.5l1.2-0.05c0.367-0.066 0.583 0 0.65 0.2 0.1 0.2 0.033 0.467-0.2 0.8-0.2 0.267-0.5 0.417-0.9 0.45l0.85 0.15c0.333 0.033 0.483 0.067 0.45 0.1-0.1 0.1-0.183 0.233-0.25 0.4 0 0.2-0.2 0.434-0.6 0.7-0.167 0.1-0.333 0.2-0.5 0.3 0.7-0.3 1.316-0.533 1.85-0.7 0.3-0.133 0.534-0.083 0.7 0.15l0.05 0.3-0.35 0.7c-0.267 0.433-0.883 0.8-1.85 1.1l0.95-0.25c0.467-0.167 0.833-0.35 1.1-0.55 0.333-0.267 0.65-0.683 0.95-1.25z" fill="#454545"/> <linearGradient id="t" x1="-2.2808" x2="-1.2808" y1="-7.3921" y2="7.7579" gradientUnits="userSpaceOnUse"> <stop stop-color="#CF8D8D" offset="0"/> <stop stop-color="#CA9E9E" offset=".1765"/> <stop stop-color="#C4B0B0" offset=".4314"/> <stop stop-color="#C0BBBB" offset=".702"/> <stop stop-color="#BFBFBF" offset="1"/> </linearGradient> <path d="m-1.25 2.3c-0.233-0.533-0.267-1.017-0.1-1.45 0.2-0.467 0.633-0.783 1.3-0.95h0.05v-1.4c-0.3 0.033-0.567-0.067-0.8-0.3-0.034-0.034-0.05-0.067-0.05-0.1-0.258-0.086-0.541-0.219-0.85-0.4-0.633 0.2-1.05 0.466-1.25 0.8-1.1 1.567-0.917 2.833 0.55 3.8l0.5 0.05v0.05h0.6c0.033 0 0.05-0.033 0.05-0.1z" fill="url(#t)"/> </g> </symbol> <use transform="matrix(1 0 0 -1 24.1 9.5996)" x="-24.099" y="-7.894" width="52.51" height="17.508" xlink:href="#e"/> </svg>